<svg viewBox="0 0 340.16 340.16" xmlns="http://www.w3.org/2000/svg" data-name="Layer 1" id="Layer_1">
  <defs>
    <style>
      .cls-1 {
        fill: #3dc5f3;
      }

      .cls-1, .cls-2 {
        fill-rule: evenodd;
      }

      .cls-2 {
        fill: #002856;
      }
    </style>
  </defs>
  <path d="m67.55,257.15l-29.02-84.18c-.94-2.72.41-5.91,3-7.12,2.6-1.21,5.46.02,6.4,2.73l30.41,88.21c3.67-.42,7.3-1.18,10.86-2.34l-33.56-97.36c-.94-2.72.4-5.92,3-7.12,2.6-1.21,5.46.02,6.4,2.74l33.64,97.59c2.98-1.68,5.89-3.7,8.7-6.11.22-.19.44-.38.66-.58l-32.75-95c-.94-2.72.4-5.92,3-7.13,2.6-1.21,5.46.02,6.4,2.74l31.36,90.95c2.85-3.54,5.42-7.35,7.77-11.3l-25.61-74.3c-.94-2.72.4-5.92,3-7.12,2.59-1.21,5.46.01,6.4,2.73l22.81,66.17c.14-.31.28-.61.43-.91,2.16-4.63,4.16-9.36,6.05-14.14l-13.53-39.25c-.94-2.72.41-5.91,3-7.12,2.59-1.22,5.47.01,6.4,2.73l9.83,28.5c1.84-5.11,3.63-10.23,5.45-15.31,5.38-15.04,10.98-30.32,18.2-44.58,6.65-13.14,14.92-25.8,25.99-35.16,18.85-15.94,36.72-13.82,58.83-12.11,10.42.8,14.9-2.6,14.9-2.6-.74,7.07-13.37,10-19.4,10.22-14.94.56-29.46,2.05-42.17,13.01-10.32,8.9-17.66,21.47-23.44,33.99-6.72,14.54-11.89,30.01-17.27,45.09-5.32,14.89-10.91,30-18.1,44.09-6.66,13.05-14.95,25.61-25.99,34.89-19.61,16.49-52.83,18.58-75.27,13.86-7.09-1.49-18-6.52-18-6.52,15.43,1.4,27.18.62,41.25-2.88" class="cls-2"></path>
  <path d="m290.63,152.59l-45.95-76.27c-1.48-2.47-4.8-3.48-7.38-2.27-2.59,1.22-3.49,4.2-2.01,6.66l48.15,79.92c-2.68,2.55-5.59,4.84-8.76,6.84l-53.14-88.21c-1.48-2.47-4.8-3.49-7.39-2.27-2.59,1.22-3.49,4.2-2.01,6.67l53.27,88.42c-3.2,1.21-6.62,2.14-10.27,2.76-.29.05-.58.09-.87.13l-51.86-86.08c-1.49-2.47-4.8-3.49-7.39-2.27-2.59,1.22-3.49,4.2-2,6.67l49.65,82.41c-4.54-.08-9.11-.55-13.65-1.29l-40.56-67.31c-1.48-2.47-4.8-3.49-7.39-2.27-2.59,1.21-3.49,4.19-2.01,6.66l36.12,59.96c-.33-.09-.65-.18-.97-.26-4.94-1.32-9.84-2.82-14.73-4.43l-21.43-35.57c-1.49-2.47-4.8-3.48-7.38-2.27-2.6,1.21-3.5,4.2-2.01,6.66l15.55,25.82c-5.1-1.87-10.18-3.78-15.23-5.64-14.99-5.52-30.31-11.03-45.87-14.64-14.34-3.33-29.36-5.11-43.65-2.63-24.32,4.23-34.16,19.3-47.03,37.35-6.07,8.51-11.55,9.76-11.55,9.76,5.89,3.97,16.25-3.84,20.28-8.32,10.01-11.11,20.47-21.28,37.03-24,13.44-2.21,27.8.23,41.11,3.83,15.47,4.18,30.65,10.14,45.67,15.69,14.83,5.48,30.01,10.88,45.43,14.41,14.29,3.27,29.24,4.96,43.44,2.45,25.23-4.46,48.15-28.6,58.93-48.84,3.4-6.4,6.55-17.99,6.55-17.99-8.82,12.73-16.96,21.25-28.68,29.79" class="cls-1"></path>
</svg>