<svg viewBox="0 0 841.89 348.94" xmlns="http://www.w3.org/2000/svg" data-name="Layer 1" id="Layer_1">
  <defs>
    <style>
      .cls-1, .cls-2 {
        fill: #002856;
      }

      .cls-3 {
        fill: #3dc5f3;
      }

      .cls-3, .cls-2 {
        fill-rule: evenodd;
      }
    </style>
  </defs>
  <g>
    <path d="m220.72,189.76c-13.59,18.61-31.16,27.91-52.71,27.91-17.51,0-32.45-6.21-44.81-18.64-12.37-12.42-18.55-27.39-18.55-44.9s6.21-32.96,18.64-45.27c12.42-12.3,27.64-18.46,45.64-18.46,21.79.49,38.93,9.55,51.42,27.18l-19.1,13.22c-9.06-11.14-20.14-16.71-33.24-16.71-11.14,0-20.6,3.86-28.37,11.57-7.78,7.71-11.66,17.08-11.66,28.1s3.89,20.78,11.66,28.56c7.77,7.78,17.23,11.66,28.37,11.66,12.36,0,23.44-5.63,33.24-16.9l19.47,12.67Z" class="cls-1"></path>
    <path d="m361.21,215.47h-27.18l-27.18-46.09h-38.01v46.09h-23.32v-123.04h75.11c10.77,0,19.93,3.76,27.46,11.29s11.29,16.56,11.29,27.09c0,8.2-2.39,15.61-7.16,22.22-4.77,6.61-11.14,11.33-19.1,14.14l28.1,48.3Zm-25.16-84.66c0-4.04-1.5-7.56-4.5-10.56-3-3-6.64-4.5-10.93-4.5h-51.79v30.3h51.79c4.28,0,7.93-1.5,10.93-4.5,3-3,4.5-6.58,4.5-10.74Z" class="cls-1"></path>
    <path d="m392.61,215.47v-123.04h23.32v123.04h-23.32Z" class="cls-1"></path>
    <path d="m560.09,178.75c-.12,12-4.87,21.49-14.23,28.46-9.37,6.98-22.62,10.47-39.76,10.47-23.63,0-44.01-6.18-61.15-18.55l13.41-19.1c13.59,9.31,29.26,14.02,47.01,14.14,10.9-.37,18.94-1.9,24.15-4.59,5.2-2.69,7.87-6.36,7.99-11.02.37-4.53-2.2-8.23-7.71-11.11-5.51-2.88-14.14-4.93-25.89-6.15-20.69-2.2-34.53-6.4-41.5-12.58-6.98-6.18-10.41-14.17-10.28-23.97.24-10.53,5.26-18.82,15.06-24.88,9.79-6.06,21.79-9.21,35.99-9.46,16.65,0,33.06,4.84,49.22,14.51l-12.86,18.73c-10.9-6.36-23.57-9.55-38.01-9.55-6.24-.12-12.15.61-17.72,2.2-5.57,1.59-8.24,4.41-7.99,8.45-.25,3.67,2.14,6.58,7.16,8.72,5.02,2.14,13.59,3.83,25.71,5.05,19.1,1.72,32.44,6.55,40.04,14.51,7.59,7.96,11.39,16.53,11.39,25.71Z" class="cls-1"></path>
  </g>
  <g>
    <path d="m135.98,250.27l1.4.43c-.31,1.44-.85,2.51-1.62,3.22-.77.71-1.71,1.06-2.82,1.06-.97,0-1.81-.24-2.5-.71s-1.26-1.24-1.7-2.29-.66-2.29-.66-3.72.22-2.61.66-3.58c.44-.98,1.04-1.71,1.79-2.21.75-.5,1.59-.75,2.52-.75,1.01,0,1.89.32,2.62.95.73.63,1.24,1.56,1.53,2.78l-1.36.39c-.47-1.78-1.4-2.67-2.81-2.67-.7,0-1.31.18-1.82.54-.51.36-.92.92-1.23,1.67-.31.76-.46,1.72-.46,2.88,0,1.76.31,3.07.93,3.95.62.88,1.44,1.32,2.47,1.32.76,0,1.41-.27,1.96-.81.55-.54.92-1.36,1.11-2.45Z" class="cls-1"></path>
    <path d="m142.03,250.12c0-1.6.34-2.81,1.01-3.63.67-.82,1.53-1.22,2.56-1.22s1.86.41,2.54,1.22c.68.82,1.02,1.99,1.02,3.53,0,1.67-.33,2.91-1,3.72-.67.82-1.52,1.22-2.56,1.22s-1.87-.41-2.55-1.23c-.68-.82-1.02-2.03-1.02-3.62Zm1.32,0c0,1.2.22,2.1.66,2.68.44.59.98.88,1.63.88.61,0,1.13-.3,1.56-.89.43-.59.65-1.48.65-2.67s-.22-2.09-.66-2.67c-.44-.59-.98-.88-1.63-.88-.61,0-1.13.29-1.56.88-.43.59-.65,1.48-.65,2.67Z" class="cls-1"></path>
    <path d="m154.26,254.76v-9.28h1.16v1.31c.28-.51.62-.89,1.03-1.14.41-.25.87-.38,1.39-.38.41,0,.78.08,1.13.24s.63.37.84.63c.21.26.37.6.48,1.01s.16,1.05.16,1.91v5.71h-1.29v-5.65c0-.68-.06-1.18-.17-1.5-.12-.31-.3-.56-.55-.73-.25-.17-.53-.26-.86-.26-.62,0-1.11.23-1.48.69s-.55,1.25-.55,2.37v5.08h-1.29Z" class="cls-1"></path>
    <path d="m165.51,251.98l1.28-.24c.08.66.28,1.14.62,1.46.34.32.78.48,1.34.48s.99-.14,1.29-.42c.31-.28.46-.63.46-1.05,0-.37-.13-.65-.39-.86-.18-.14-.62-.32-1.31-.52-1-.31-1.67-.57-2.01-.79-.34-.22-.6-.5-.79-.87s-.28-.77-.28-1.23c0-.79.25-1.44.76-1.93s1.21-.74,2.11-.74c.56,0,1.06.1,1.49.31s.76.48.98.82.38.84.47,1.48l-1.26.21c-.12-1.01-.67-1.52-1.65-1.52-.56,0-.98.11-1.25.33-.27.22-.41.51-.41.86s.13.61.39.81c.16.12.62.3,1.4.56,1.07.34,1.76.61,2.07.81s.56.48.73.82c.17.35.26.76.26,1.24,0,.89-.28,1.61-.84,2.15s-1.33.82-2.3.82c-1.82,0-2.88-1-3.17-2.99Z" class="cls-1"></path>
    <path d="m176.44,250.12c0-1.6.34-2.81,1.01-3.63.67-.82,1.53-1.22,2.56-1.22s1.86.41,2.54,1.22c.68.82,1.02,1.99,1.02,3.53,0,1.67-.33,2.91-1,3.72-.67.82-1.52,1.22-2.56,1.22s-1.87-.41-2.55-1.23c-.68-.82-1.02-2.03-1.02-3.62Zm1.32,0c0,1.2.22,2.1.66,2.68.44.59.98.88,1.63.88.61,0,1.13-.3,1.56-.89.43-.59.65-1.48.65-2.67s-.22-2.09-.66-2.67c-.44-.59-.98-.88-1.63-.88-.61,0-1.13.29-1.56.88-.43.59-.65,1.48-.65,2.67Z" class="cls-1"></path>
    <path d="m188.68,254.76v-9.28h1.16v1.41c.3-.65.57-1.08.82-1.3.25-.21.53-.32.83-.32.43,0,.87.17,1.32.51l-.44,1.46c-.32-.23-.63-.34-.94-.34-.27,0-.52.1-.75.29-.23.19-.39.46-.48.8-.16.6-.24,1.24-.24,1.92v4.86h-1.29Z" class="cls-1"></path>
    <path d="m200.02,253.35l.17,1.39c-.36.09-.68.14-.96.14-.45,0-.81-.09-1.08-.27-.27-.18-.46-.42-.56-.73-.1-.31-.15-.92-.15-1.84v-5.34h-.94v-1.22h.94v-2.3l1.29-.94v3.24h1.3v1.22h-1.3v5.43c0,.5.04.83.11.97.11.21.32.31.62.31.15,0,.33-.02.57-.06Z" class="cls-1"></path>
    <path d="m204.81,243.75v-1.81h1.29v1.81h-1.29Zm0,11.01v-9.28h1.29v9.28h-1.29Z" class="cls-1"></path>
    <path d="m216.64,254.76v-1.36c-.3.53-.65.92-1.05,1.18s-.86.39-1.36.39c-.6,0-1.11-.16-1.54-.49s-.71-.73-.85-1.23c-.14-.5-.21-1.17-.21-2.03v-5.75h1.29v5.15c0,.96.05,1.59.14,1.92.1.32.27.58.53.78.26.2.55.29.89.29.62,0,1.12-.25,1.52-.76.34-.44.51-1.24.51-2.4v-4.97h1.29v9.28h-1.15Z" class="cls-1"></path>
    <path d="m223.41,254.76v-9.28h1.15v1.29c.26-.48.58-.85.99-1.11s.84-.39,1.32-.39c.54,0,.99.14,1.36.41.37.28.63.68.79,1.2.3-.54.65-.94,1.05-1.21s.83-.4,1.31-.4c.73,0,1.31.25,1.73.74.42.5.63,1.29.63,2.38v6.37h-1.29v-5.85c0-.67-.05-1.14-.14-1.41-.1-.28-.25-.49-.47-.64-.22-.15-.46-.23-.73-.23-.56,0-1.01.22-1.36.66s-.53,1.13-.53,2.08v5.4h-1.29v-6.04c0-.77-.12-1.31-.35-1.63-.24-.32-.56-.47-.97-.47-.59,0-1.05.24-1.39.71-.34.48-.51,1.34-.51,2.6v4.82h-1.29Z" class="cls-1"></path>
    <path d="m247.23,254.76v-8.06h-1.15v-1.22h1.15v-.99c0-.73.08-1.27.23-1.64.15-.36.38-.64.7-.83s.71-.29,1.18-.29c.37,0,.77.06,1.21.17l-.19,1.36c-.27-.06-.52-.09-.76-.09-.38,0-.66.1-.83.3s-.25.58-.25,1.15v.86h1.49v1.22h-1.49v8.06h-1.29Z" class="cls-1"></path>
    <path d="m254.05,250.12c0-1.6.34-2.81,1.01-3.63.67-.82,1.53-1.22,2.56-1.22s1.86.41,2.54,1.22c.68.82,1.02,1.99,1.02,3.53,0,1.67-.33,2.91-1,3.72-.67.82-1.52,1.22-2.56,1.22s-1.87-.41-2.55-1.23c-.68-.82-1.02-2.03-1.02-3.62Zm1.32,0c0,1.2.22,2.1.66,2.68.44.59.98.88,1.63.88.61,0,1.13-.3,1.56-.89.43-.59.65-1.48.65-2.67s-.22-2.09-.66-2.67c-.44-.59-.98-.88-1.63-.88-.61,0-1.13.29-1.56.88-.43.59-.65,1.48-.65,2.67Z" class="cls-1"></path>
    <path d="m266.29,254.76v-9.28h1.16v1.41c.3-.65.57-1.08.82-1.3.25-.21.53-.32.83-.32.43,0,.87.17,1.32.51l-.44,1.46c-.32-.23-.63-.34-.94-.34-.27,0-.52.1-.75.29-.23.19-.39.46-.48.8-.16.6-.24,1.24-.24,1.92v4.86h-1.29Z" class="cls-1"></path>
    <path d="m290.06,250.27l1.4.43c-.31,1.44-.85,2.51-1.62,3.22-.77.71-1.71,1.06-2.82,1.06-.97,0-1.81-.24-2.5-.71s-1.26-1.24-1.7-2.29-.66-2.29-.66-3.72.22-2.61.66-3.58c.44-.98,1.04-1.71,1.79-2.21.75-.5,1.59-.75,2.52-.75,1.01,0,1.89.32,2.62.95.73.63,1.24,1.56,1.53,2.78l-1.36.39c-.47-1.78-1.4-2.67-2.81-2.67-.7,0-1.31.18-1.82.54-.51.36-.92.92-1.23,1.67-.31.76-.46,1.72-.46,2.88,0,1.76.31,3.07.93,3.95.62.88,1.44,1.32,2.47,1.32.76,0,1.41-.27,1.96-.81.55-.54.92-1.36,1.11-2.45Z" class="cls-1"></path>
    <path d="m296.55,254.76v-12.82h1.29v12.82h-1.29Z" class="cls-1"></path>
    <path d="m303.43,243.75v-1.81h1.29v1.81h-1.29Zm0,11.01v-9.28h1.29v9.28h-1.29Z" class="cls-1"></path>
    <path d="m310.28,254.76v-9.28h1.16v1.31c.28-.51.62-.89,1.03-1.14.41-.25.87-.38,1.39-.38.41,0,.78.08,1.13.24s.63.37.84.63c.21.26.37.6.48,1.01s.16,1.05.16,1.91v5.71h-1.29v-5.65c0-.68-.06-1.18-.17-1.5-.12-.31-.3-.56-.55-.73-.25-.17-.53-.26-.86-.26-.62,0-1.11.23-1.48.69s-.55,1.25-.55,2.37v5.08h-1.29Z" class="cls-1"></path>
    <path d="m322.02,243.75v-1.81h1.29v1.81h-1.29Zm0,11.01v-9.28h1.29v9.28h-1.29Z" class="cls-1"></path>
    <path d="m333.85,251.36l1.27.2c-.15,1.11-.51,1.95-1.1,2.54-.59.58-1.29.87-2.11.87-1,0-1.82-.41-2.46-1.23-.64-.82-.97-2.03-.97-3.63s.33-2.82.97-3.63,1.48-1.21,2.5-1.21c.79,0,1.45.25,1.99.73s.88,1.22,1.04,2.2l-1.25.23c-.12-.63-.33-1.1-.64-1.41-.3-.31-.67-.47-1.09-.47-.64,0-1.16.28-1.58.84-.42.56-.62,1.46-.62,2.68s.2,2.18.6,2.75.91.85,1.53.85c.49,0,.91-.19,1.25-.56.35-.38.57-.96.66-1.75Z" class="cls-1"></path>
    <path d="m344.75,253.61c-.43.45-.88.79-1.35,1.01-.47.23-.95.34-1.45.34-.79,0-1.42-.24-1.9-.72-.47-.48-.71-1.12-.71-1.93,0-.54.11-1.01.33-1.42.22-.41.53-.74.91-.97.38-.23.97-.4,1.75-.52,1.05-.15,1.82-.34,2.31-.55v-.4c0-.64-.1-1.08-.33-1.34-.32-.37-.81-.56-1.48-.56-.6,0-1.05.12-1.35.37-.3.25-.52.72-.66,1.4l-1.27-.21c.18-1,.55-1.72,1.1-2.18.55-.45,1.34-.68,2.36-.68.8,0,1.42.15,1.88.45.45.3.74.67.86,1.11.12.44.18,1.09.18,1.94v2.1c0,1.47.03,2.39.08,2.78s.17.75.33,1.11h-1.35c-.13-.32-.22-.7-.26-1.15Zm-.11-3.51c-.47.23-1.17.43-2.11.59-.54.09-.92.2-1.14.32s-.38.29-.5.51-.18.47-.18.76c0,.44.14.8.41,1.06.27.27.65.4,1.14.4s.88-.12,1.25-.36c.38-.24.66-.56.84-.96.19-.4.28-.98.28-1.74v-.58Z" class="cls-1"></path>
    <path d="m351.49,254.76v-12.82h1.29v12.82h-1.29Z" class="cls-1"></path>
    <path d="m366.22,254.76v-12.82h4.66c.97,0,1.69.12,2.16.36.46.24.84.64,1.14,1.19.3.56.45,1.2.45,1.94,0,.97-.25,1.75-.76,2.35-.5.6-1.24.98-2.2,1.14.39.24.69.47.89.71.41.49.78,1.03,1.09,1.63l1.84,3.49h-1.75l-1.4-2.67c-.54-1.04-.95-1.75-1.23-2.11-.28-.36-.54-.61-.8-.73-.26-.12-.62-.19-1.09-.19h-1.61v5.69h-1.39Zm1.39-7.16h2.99c.65,0,1.15-.08,1.49-.24.34-.16.61-.4.8-.74s.3-.73.3-1.18c0-.65-.19-1.16-.57-1.53s-.94-.56-1.69-.56h-3.32v4.24Z" class="cls-1"></path>
    <path d="m385.42,251.77l1.33.2c-.22.99-.62,1.74-1.2,2.24-.58.5-1.3.76-2.16.76-1.08,0-1.95-.41-2.62-1.23-.67-.82-1-2-1-3.54s.34-2.83,1.01-3.67c.67-.84,1.53-1.26,2.56-1.26s1.81.41,2.46,1.24c.66.83.99,2.03.99,3.59v.42h-5.69c.05,1.04.29,1.83.73,2.36s.96.8,1.57.8c.97,0,1.64-.63,2.02-1.91Zm-4.24-2.54h4.25c-.06-.8-.23-1.4-.52-1.8-.41-.58-.94-.87-1.58-.87-.58,0-1.07.24-1.48.72-.41.48-.63,1.13-.67,1.95Z" class="cls-1"></path>
    <path d="m391.47,251.98l1.28-.24c.08.66.28,1.14.62,1.46.34.32.78.48,1.34.48s.99-.14,1.29-.42c.31-.28.46-.63.46-1.05,0-.37-.13-.65-.39-.86-.18-.14-.62-.32-1.31-.52-1-.31-1.67-.57-2.01-.79-.34-.22-.6-.5-.79-.87s-.28-.77-.28-1.23c0-.79.25-1.44.76-1.93s1.21-.74,2.11-.74c.56,0,1.06.1,1.49.31s.76.48.98.82.38.84.47,1.48l-1.26.21c-.12-1.01-.67-1.52-1.65-1.52-.56,0-.98.11-1.25.33-.27.22-.41.51-.41.86s.13.61.39.81c.16.12.62.3,1.4.56,1.07.34,1.76.61,2.07.81s.56.48.73.82c.17.35.26.76.26,1.24,0,.89-.28,1.61-.84,2.15s-1.33.82-2.3.82c-1.82,0-2.88-1-3.17-2.99Z" class="cls-1"></path>
    <path d="m408.09,251.77l1.33.2c-.22.99-.62,1.74-1.2,2.24-.58.5-1.3.76-2.16.76-1.08,0-1.95-.41-2.62-1.23-.67-.82-1-2-1-3.54s.34-2.83,1.01-3.67c.67-.84,1.53-1.26,2.56-1.26s1.81.41,2.46,1.24c.66.83.99,2.03.99,3.59v.42h-5.69c.05,1.04.29,1.83.73,2.36s.96.8,1.57.8c.97,0,1.64-.63,2.02-1.91Zm-4.24-2.54h4.25c-.06-.8-.23-1.4-.52-1.8-.41-.58-.94-.87-1.58-.87-.58,0-1.07.24-1.48.72-.41.48-.63,1.13-.67,1.95Z" class="cls-1"></path>
    <path d="m419.59,253.61c-.43.45-.88.79-1.35,1.01-.47.23-.95.34-1.45.34-.79,0-1.42-.24-1.9-.72-.47-.48-.71-1.12-.71-1.93,0-.54.11-1.01.33-1.42.22-.41.53-.74.91-.97.38-.23.97-.4,1.75-.52,1.05-.15,1.82-.34,2.31-.55v-.4c0-.64-.1-1.08-.33-1.34-.32-.37-.81-.56-1.48-.56-.6,0-1.05.12-1.35.37-.3.25-.52.72-.66,1.4l-1.27-.21c.18-1,.55-1.72,1.1-2.18.55-.45,1.34-.68,2.36-.68.8,0,1.42.15,1.88.45.45.3.74.67.86,1.11.12.44.18,1.09.18,1.94v2.1c0,1.47.03,2.39.08,2.78s.17.75.33,1.11h-1.35c-.13-.32-.22-.7-.26-1.15Zm-.11-3.51c-.47.23-1.17.43-2.11.59-.54.09-.92.2-1.14.32s-.38.29-.5.51-.18.47-.18.76c0,.44.14.8.41,1.06.27.27.65.4,1.14.4s.88-.12,1.25-.36c.38-.24.66-.56.84-.96.19-.4.28-.98.28-1.74v-.58Z" class="cls-1"></path>
    <path d="m426.38,254.76v-9.28h1.16v1.41c.3-.65.57-1.08.82-1.3.25-.21.53-.32.83-.32.43,0,.87.17,1.32.51l-.44,1.46c-.32-.23-.63-.34-.94-.34-.27,0-.52.1-.75.29-.23.19-.39.46-.48.8-.16.6-.24,1.24-.24,1.92v4.86h-1.29Z" class="cls-1"></path>
    <path d="m439.83,251.36l1.27.2c-.15,1.11-.51,1.95-1.1,2.54-.59.58-1.29.87-2.11.87-1,0-1.82-.41-2.46-1.23-.64-.82-.97-2.03-.97-3.63s.33-2.82.97-3.63,1.48-1.21,2.5-1.21c.79,0,1.45.25,1.99.73s.88,1.22,1.04,2.2l-1.25.23c-.12-.63-.33-1.1-.64-1.41-.3-.31-.67-.47-1.09-.47-.64,0-1.16.28-1.58.84-.42.56-.62,1.46-.62,2.68s.2,2.18.6,2.75.91.85,1.53.85c.49,0,.91-.19,1.25-.56.35-.38.57-.96.66-1.75Z" class="cls-1"></path>
    <path d="m445.77,254.76v-12.82h1.29v4.6c.3-.43.65-.74,1.03-.96.38-.21.8-.32,1.26-.32.81,0,1.45.26,1.92.77.47.52.7,1.46.7,2.84v5.88h-1.29v-5.88c0-.8-.14-1.38-.43-1.73-.29-.35-.68-.52-1.18-.52-.56,0-1.04.22-1.43.67s-.59,1.24-.59,2.39v5.08h-1.29Z" class="cls-1"></path>
    <path d="m470.14,253.61c-.43.45-.88.79-1.35,1.01-.47.23-.95.34-1.45.34-.79,0-1.42-.24-1.9-.72-.47-.48-.71-1.12-.71-1.93,0-.54.11-1.01.33-1.42.22-.41.53-.74.91-.97.38-.23.97-.4,1.75-.52,1.05-.15,1.82-.34,2.31-.55v-.4c0-.64-.1-1.08-.33-1.34-.32-.37-.81-.56-1.48-.56-.6,0-1.05.12-1.35.37-.3.25-.52.72-.66,1.4l-1.27-.21c.18-1,.55-1.72,1.1-2.18.55-.45,1.34-.68,2.36-.68.8,0,1.42.15,1.88.45.45.3.74.67.86,1.11.12.44.18,1.09.18,1.94v2.1c0,1.47.03,2.39.08,2.78s.17.75.33,1.11h-1.35c-.13-.32-.22-.7-.26-1.15Zm-.11-3.51c-.47.23-1.17.43-2.11.59-.54.09-.92.2-1.14.32s-.38.29-.5.51-.18.47-.18.76c0,.44.14.8.41,1.06.27.27.65.4,1.14.4s.88-.12,1.25-.36c.38-.24.66-.56.84-.96.19-.4.28-.98.28-1.74v-.58Z" class="cls-1"></path>
    <path d="m476.93,254.76v-9.28h1.16v1.31c.28-.51.62-.89,1.03-1.14.41-.25.87-.38,1.39-.38.41,0,.78.08,1.13.24s.63.37.84.63c.21.26.37.6.48,1.01s.16,1.05.16,1.91v5.71h-1.29v-5.65c0-.68-.06-1.18-.17-1.5-.12-.31-.3-.56-.55-.73-.25-.17-.53-.26-.86-.26-.62,0-1.11.23-1.48.69s-.55,1.25-.55,2.37v5.08h-1.29Z" class="cls-1"></path>
    <path d="m493.6,254.76v-1.17c-.23.45-.53.79-.9,1.03-.37.24-.76.35-1.19.35-.9,0-1.67-.42-2.33-1.27-.66-.85-.98-2.04-.98-3.58,0-1.05.15-1.95.44-2.68s.68-1.28,1.17-1.63c.49-.36,1.03-.53,1.62-.53.42,0,.82.11,1.18.34.36.22.67.54.9.94v-4.6h1.3v12.82h-1.21Zm-4.08-4.63c0,1.2.21,2.09.63,2.68s.9.87,1.46.87,1.02-.28,1.43-.84c.4-.56.6-1.41.6-2.54,0-1.3-.2-2.25-.6-2.85-.4-.6-.91-.9-1.52-.9-.54,0-1.01.29-1.4.86s-.59,1.48-.59,2.71Z" class="cls-1"></path>
    <path d="m508.53,254.76v-12.82h1.39v12.82h-1.39Z" class="cls-1"></path>
    <path d="m515.75,254.76v-9.28h1.16v1.31c.28-.51.62-.89,1.03-1.14.41-.25.87-.38,1.39-.38.41,0,.78.08,1.13.24s.63.37.84.63c.21.26.37.6.48,1.01s.16,1.05.16,1.91v5.71h-1.29v-5.65c0-.68-.06-1.18-.17-1.5-.12-.31-.3-.56-.55-.73-.25-.17-.53-.26-.86-.26-.62,0-1.11.23-1.48.69s-.55,1.25-.55,2.37v5.08h-1.29Z" class="cls-1"></path>
    <path d="m527.49,254.76v-9.28h1.16v1.31c.28-.51.62-.89,1.03-1.14.41-.25.87-.38,1.39-.38.41,0,.78.08,1.13.24s.63.37.84.63c.21.26.37.6.48,1.01s.16,1.05.16,1.91v5.71h-1.29v-5.65c0-.68-.06-1.18-.17-1.5-.12-.31-.3-.56-.55-.73-.25-.17-.53-.26-.86-.26-.62,0-1.11.23-1.48.69s-.55,1.25-.55,2.37v5.08h-1.29Z" class="cls-1"></path>
    <path d="m538.75,250.12c0-1.6.34-2.81,1.01-3.63.67-.82,1.53-1.22,2.56-1.22s1.86.41,2.54,1.22c.68.82,1.02,1.99,1.02,3.53,0,1.67-.33,2.91-1,3.72-.67.82-1.52,1.22-2.56,1.22s-1.87-.41-2.55-1.23c-.68-.82-1.02-2.03-1.02-3.62Zm1.32,0c0,1.2.22,2.1.66,2.68.44.59.98.88,1.63.88.61,0,1.13-.3,1.56-.89.43-.59.65-1.48.65-2.67s-.22-2.09-.66-2.67c-.44-.59-.98-.88-1.63-.88-.61,0-1.13.29-1.56.88-.43.59-.65,1.48-.65,2.67Z" class="cls-1"></path>
    <path d="m553.11,254.76l-2.9-9.28h1.36l1.64,5.56c.19.63.35,1.25.49,1.87.11-.49.27-1.08.47-1.77l1.7-5.67h1.33l-2.9,9.28h-1.2Z" class="cls-1"></path>
    <path d="m566.87,253.61c-.43.45-.88.79-1.35,1.01-.47.23-.95.34-1.45.34-.79,0-1.42-.24-1.9-.72-.47-.48-.71-1.12-.71-1.93,0-.54.11-1.01.33-1.42.22-.41.53-.74.91-.97.38-.23.97-.4,1.75-.52,1.05-.15,1.82-.34,2.31-.55v-.4c0-.64-.1-1.08-.33-1.34-.32-.37-.81-.56-1.48-.56-.6,0-1.05.12-1.35.37-.3.25-.52.72-.66,1.4l-1.27-.21c.18-1,.55-1.72,1.1-2.18.55-.45,1.34-.68,2.36-.68.8,0,1.42.15,1.88.45.45.3.74.67.86,1.11.12.44.18,1.09.18,1.94v2.1c0,1.47.03,2.39.08,2.78s.17.75.33,1.11h-1.35c-.13-.32-.22-.7-.26-1.15Zm-.11-3.51c-.47.23-1.17.43-2.11.59-.54.09-.92.2-1.14.32s-.38.29-.5.51-.18.47-.18.76c0,.44.14.8.41,1.06.27.27.65.4,1.14.4s.88-.12,1.25-.36c.38-.24.66-.56.84-.96.19-.4.28-.98.28-1.74v-.58Z" class="cls-1"></path>
    <path d="m576.52,253.35l.17,1.39c-.36.09-.68.14-.96.14-.45,0-.81-.09-1.08-.27-.27-.18-.46-.42-.56-.73-.1-.31-.15-.92-.15-1.84v-5.34h-.94v-1.22h.94v-2.3l1.29-.94v3.24h1.3v1.22h-1.3v5.43c0,.5.04.83.11.97.11.21.32.31.62.31.15,0,.33-.02.57-.06Z" class="cls-1"></path>
    <path d="m581.32,243.75v-1.81h1.29v1.81h-1.29Zm0,11.01v-9.28h1.29v9.28h-1.29Z" class="cls-1"></path>
    <path d="m587.67,250.12c0-1.6.34-2.81,1.01-3.63.67-.82,1.53-1.22,2.56-1.22s1.86.41,2.54,1.22c.68.82,1.02,1.99,1.02,3.53,0,1.67-.33,2.91-1,3.72-.67.82-1.52,1.22-2.56,1.22s-1.87-.41-2.55-1.23c-.68-.82-1.02-2.03-1.02-3.62Zm1.32,0c0,1.2.22,2.1.66,2.68.44.59.98.88,1.63.88.61,0,1.13-.3,1.56-.89.43-.59.65-1.48.65-2.67s-.22-2.09-.66-2.67c-.44-.59-.98-.88-1.63-.88-.61,0-1.13.29-1.56.88-.43.59-.65,1.48-.65,2.67Z" class="cls-1"></path>
    <path d="m599.91,254.76v-9.28h1.16v1.31c.28-.51.62-.89,1.03-1.14.41-.25.87-.38,1.39-.38.41,0,.78.08,1.13.24s.63.37.84.63c.21.26.37.6.48,1.01s.16,1.05.16,1.91v5.71h-1.29v-5.65c0-.68-.06-1.18-.17-1.5-.12-.31-.3-.56-.55-.73-.25-.17-.53-.26-.86-.26-.62,0-1.11.23-1.48.69s-.55,1.25-.55,2.37v5.08h-1.29Z" class="cls-1"></path>
    <path d="m619.03,250.63l1.31-.14c.07.71.23,1.25.48,1.65s.6.71,1.06.95c.46.24.98.36,1.56.36.83,0,1.47-.2,1.93-.61.46-.4.69-.93.69-1.57,0-.38-.08-.71-.25-.99s-.42-.51-.75-.69c-.33-.18-1.06-.44-2.17-.76-.99-.29-1.7-.59-2.12-.89-.42-.3-.75-.67-.98-1.13-.23-.46-.35-.97-.35-1.55,0-1.04.33-1.88,1.01-2.54.67-.66,1.57-.99,2.71-.99.78,0,1.46.16,2.05.46s1.04.75,1.36,1.33c.32.58.5,1.26.52,2.04l-1.34.12c-.07-.83-.32-1.45-.75-1.85-.43-.4-1.03-.6-1.8-.6s-1.39.18-1.8.53c-.41.35-.62.81-.62,1.37,0,.52.15.92.45,1.21.3.29.99.57,2.05.87,1.04.29,1.76.54,2.18.75.64.33,1.12.76,1.45,1.29.33.53.49,1.17.49,1.91s-.17,1.4-.52,2-.81,1.06-1.4,1.38c-.59.31-1.3.47-2.14.47-1.3,0-2.34-.39-3.11-1.17-.77-.78-1.17-1.84-1.2-3.17Z" class="cls-1"></path>
    <path d="m632.69,243.75v-1.81h1.29v1.81h-1.29Zm0,11.01v-9.28h1.29v9.28h-1.29Z" class="cls-1"></path>
    <path d="m639.53,254.76v-9.28h1.16v1.31c.28-.51.62-.89,1.03-1.14.41-.25.87-.38,1.39-.38.41,0,.78.08,1.13.24s.63.37.84.63c.21.26.37.6.48,1.01s.16,1.05.16,1.91v5.71h-1.29v-5.65c0-.68-.06-1.18-.17-1.5-.12-.31-.3-.56-.55-.73-.25-.17-.53-.26-.86-.26-.62,0-1.11.23-1.48.69s-.55,1.25-.55,2.37v5.08h-1.29Z" class="cls-1"></path>
    <path d="m651.02,255.53l1.26.23c.06.5.23.87.52,1.11.29.24.7.36,1.22.36.57,0,1.02-.13,1.35-.41.33-.27.56-.67.69-1.21.08-.33.11-1.01.11-2.06-.28.4-.59.7-.94.9-.35.2-.74.3-1.16.3-.91,0-1.66-.38-2.26-1.15-.69-.89-1.03-2.07-1.03-3.56,0-1,.15-1.87.45-2.61s.7-1.29,1.19-1.64,1.04-.52,1.66-.52c.45,0,.86.11,1.23.33s.7.55.98.99v-1.11h1.19v8.03c0,1.43-.12,2.45-.35,3.06-.23.61-.62,1.09-1.15,1.44s-1.17.53-1.91.53c-.99,0-1.74-.26-2.27-.79s-.79-1.26-.77-2.2Zm1.07-5.58c0,1.22.2,2.11.6,2.67.4.56.9.84,1.48.84s1.08-.27,1.49-.82c.41-.55.61-1.42.61-2.62s-.21-2.04-.63-2.61c-.42-.57-.93-.85-1.53-.85-.54,0-1.01.29-1.42.85-.41.57-.61,1.42-.61,2.54Z" class="cls-1"></path>
    <path d="m667.98,253.61c-.43.45-.88.79-1.35,1.01-.47.23-.95.34-1.45.34-.79,0-1.42-.24-1.9-.72-.47-.48-.71-1.12-.71-1.93,0-.54.11-1.01.33-1.42.22-.41.53-.74.91-.97.38-.23.97-.4,1.75-.52,1.05-.15,1.82-.34,2.31-.55v-.4c0-.64-.1-1.08-.33-1.34-.32-.37-.81-.56-1.48-.56-.6,0-1.05.12-1.35.37-.3.25-.52.72-.66,1.4l-1.27-.21c.18-1,.55-1.72,1.1-2.18.55-.45,1.34-.68,2.36-.68.8,0,1.42.15,1.88.45.45.3.74.67.86,1.11.12.44.18,1.09.18,1.94v2.1c0,1.47.03,2.39.08,2.78s.17.75.33,1.11h-1.35c-.13-.32-.22-.7-.26-1.15Zm-.11-3.51c-.47.23-1.17.43-2.11.59-.54.09-.92.2-1.14.32s-.38.29-.5.51-.18.47-.18.76c0,.44.14.8.41,1.06.27.27.65.4,1.14.4s.88-.12,1.25-.36c.38-.24.66-.56.84-.96.19-.4.28-.98.28-1.74v-.58Z" class="cls-1"></path>
    <path d="m674.77,258.32v-12.84h1.19v1.21c.29-.5.61-.86.97-1.08.36-.22.76-.33,1.22-.33.6,0,1.14.18,1.62.53s.87.9,1.17,1.62.44,1.6.44,2.62c0,1.58-.33,2.8-.99,3.65-.66.85-1.44,1.28-2.33,1.28-.4,0-.77-.1-1.11-.31-.34-.2-.64-.49-.89-.87v4.52h-1.29Zm1.17-8.15c0,1.2.2,2.08.6,2.65s.89.85,1.46.85,1.03-.29,1.44-.88c.41-.59.62-1.5.62-2.73s-.2-2.11-.6-2.69c-.4-.58-.89-.87-1.47-.87-.52,0-.99.31-1.41.94-.42.63-.64,1.54-.64,2.73Z" class="cls-1"></path>
    <path d="m686.03,250.12c0-1.6.34-2.81,1.01-3.63.67-.82,1.53-1.22,2.56-1.22s1.86.41,2.54,1.22c.68.82,1.02,1.99,1.02,3.53,0,1.67-.33,2.91-1,3.72-.67.82-1.52,1.22-2.56,1.22s-1.87-.41-2.55-1.23c-.68-.82-1.02-2.03-1.02-3.62Zm1.32,0c0,1.2.22,2.1.66,2.68.44.59.98.88,1.63.88.61,0,1.13-.3,1.56-.89.43-.59.65-1.48.65-2.67s-.22-2.09-.66-2.67c-.44-.59-.98-.88-1.63-.88-.61,0-1.13.29-1.56.88-.43.59-.65,1.48-.65,2.67Z" class="cls-1"></path>
    <path d="m698.26,254.76v-9.28h1.16v1.41c.3-.65.57-1.08.82-1.3.25-.21.53-.32.83-.32.43,0,.87.17,1.32.51l-.44,1.46c-.32-.23-.63-.34-.94-.34-.27,0-.52.1-.75.29-.23.19-.39.46-.48.8-.16.6-.24,1.24-.24,1.92v4.86h-1.29Z" class="cls-1"></path>
    <path d="m711.93,251.77l1.33.2c-.22.99-.62,1.74-1.2,2.24-.58.5-1.3.76-2.16.76-1.08,0-1.95-.41-2.62-1.23-.67-.82-1-2-1-3.54s.34-2.83,1.01-3.67c.67-.84,1.53-1.26,2.56-1.26s1.81.41,2.46,1.24c.66.83.99,2.03.99,3.59v.42h-5.69c.05,1.04.29,1.83.73,2.36s.96.8,1.57.8c.97,0,1.64-.63,2.02-1.91Zm-4.24-2.54h4.25c-.06-.8-.23-1.4-.52-1.8-.41-.58-.94-.87-1.58-.87-.58,0-1.07.24-1.48.72-.41.48-.63,1.13-.67,1.95Z" class="cls-1"></path>
  </g>
  <g>
    <path d="m615.86,196.4l-13.99-40.59c-.45-1.31.2-2.85,1.44-3.43,1.25-.58,2.63,0,3.09,1.32l14.66,42.53c1.77-.2,3.52-.57,5.24-1.13l-16.18-46.94c-.45-1.31.19-2.85,1.45-3.43,1.25-.58,2.63,0,3.09,1.32l16.22,47.05c1.44-.81,2.84-1.78,4.2-2.94.11-.09.21-.19.32-.28l-15.79-45.8c-.45-1.31.19-2.85,1.45-3.44,1.25-.58,2.63,0,3.09,1.32l15.12,43.85c1.37-1.7,2.61-3.54,3.75-5.45l-12.35-35.82c-.45-1.31.19-2.85,1.45-3.43,1.25-.58,2.63,0,3.08,1.32l11,31.9c.07-.15.14-.29.21-.44,1.04-2.23,2-4.51,2.92-6.82l-6.52-18.92c-.45-1.31.2-2.85,1.44-3.43,1.25-.59,2.64,0,3.09,1.32l4.74,13.74c.89-2.46,1.75-4.93,2.63-7.38,2.59-7.25,5.29-14.62,8.77-21.49,3.2-6.33,7.19-12.44,12.53-16.95,9.09-7.69,17.7-6.66,28.36-5.84,5.02.39,7.18-1.25,7.18-1.25-.36,3.41-6.45,4.82-9.35,4.93-7.2.27-14.2.99-20.33,6.27-4.98,4.29-8.52,10.35-11.3,16.39-3.24,7.01-5.73,14.47-8.33,21.74-2.56,7.18-5.26,14.46-8.73,21.26-3.21,6.29-7.21,12.34-12.53,16.82-9.45,7.95-25.47,8.96-36.29,6.68-3.42-.72-8.68-3.14-8.68-3.14,7.44.67,13.11.3,19.89-1.39" class="cls-2"></path>
    <path d="m723.41,145.99l-22.16-36.77c-.72-1.19-2.31-1.68-3.56-1.1-1.25.59-1.68,2.03-.97,3.21l23.21,38.53c-1.29,1.23-2.7,2.33-4.22,3.3l-25.62-42.53c-.72-1.19-2.31-1.68-3.56-1.09-1.25.59-1.68,2.03-.97,3.21l25.68,42.63c-1.54.58-3.19,1.03-4.95,1.33-.14.02-.28.05-.42.06l-25-41.5c-.72-1.19-2.31-1.68-3.56-1.09-1.25.59-1.68,2.03-.97,3.21l23.93,39.73c-2.19-.04-4.39-.27-6.58-.62l-19.55-32.45c-.72-1.19-2.31-1.68-3.56-1.09-1.25.58-1.68,2.02-.97,3.21l17.41,28.91c-.16-.04-.31-.08-.47-.12-2.38-.63-4.75-1.36-7.1-2.14l-10.33-17.15c-.72-1.19-2.31-1.68-3.56-1.1-1.25.58-1.69,2.03-.97,3.21l7.5,12.45c-2.46-.9-4.91-1.82-7.34-2.72-7.23-2.66-14.61-5.32-22.12-7.06-6.91-1.61-14.16-2.46-21.04-1.27-11.73,2.04-16.47,9.31-22.68,18.01-2.93,4.1-5.57,4.71-5.57,4.71,2.84,1.91,7.83-1.85,9.78-4.01,4.83-5.35,9.87-10.26,17.85-11.57,6.48-1.06,13.4.11,19.82,1.84,7.46,2.01,14.78,4.89,22.02,7.56,7.15,2.64,14.47,5.25,21.9,6.94,6.89,1.57,14.09,2.39,20.94,1.18,12.16-2.15,23.21-13.79,28.41-23.55,1.64-3.08,3.16-8.67,3.16-8.67-4.25,6.14-8.18,10.25-13.83,14.36" class="cls-3"></path>
  </g>
</svg>